<?xml version="1.0" encoding="utf-8"?>
<!-- Generator: Adobe Illustrator 19.0.1, SVG Export Plug-In . SVG Version: 6.00 Build 0)  -->
<!DOCTYPE svg PUBLIC "-//W3C//DTD SVG 1.1//EN" "http://www.w3.org/Graphics/SVG/1.1/DTD/svg11.dtd">
<svg version="1.1" id="Layer_1" xmlns="http://www.w3.org/2000/svg" xmlns:xlink="http://www.w3.org/1999/xlink" x="0px" y="0px"
	 width="296.2px" height="227.4px" viewBox="0 0 296.2 227.4" enable-background="new 0 0 296.2 227.4" xml:space="preserve">
<path fill="#454545" d="M44.1,31l-2.6-8.9c-0.1-0.3-0.4-0.6-0.7-0.6h-13c-0.3,0-0.6,0.2-0.7,0.6L24.4,31c0,0.1,0,0.1,0,0.2v6.4
	c0,0.4,0.3,0.8,0.8,0.8h18.2c0.4,0,0.8-0.3,0.8-0.8v-6.4C44.1,31.1,44.1,31,44.1,31z M28.3,23.1h11.9l2.2,7.6h-3.9
	c-0.2,0-0.4,0.1-0.5,0.3l-1.2,2.6h-5.1l-1.2-2.6c-0.1-0.2-0.3-0.3-0.5-0.3h-3.9L28.3,23.1z"/>
<path fill="#454545" d="M36.6,65.7v-1.2c0-0.7-0.6-1.2-1.2-1.2h-5.2h-2v16.8c0,0.1,0.4,0.2,1,0.2c0.6,0,1-0.1,1-0.2v-9.2H34v1.2
	c0,0.7,0.5,1.2,1.2,1.2h5.2v-7.7H36.6z"/>
<path fill="#454545" d="M42.5,120.3l-5.2-5.2c0.8-1.1,1.2-2.4,1.2-3.7c0-1.7-0.7-3.3-1.9-4.5c-1.2-1.2-2.8-1.9-4.5-1.9
	c-1.7,0-3.3,0.7-4.5,1.9c-1.2,1.2-1.9,2.8-1.9,4.5c0,1.7,0.7,3.3,1.9,4.5c1.2,1.2,2.8,1.9,4.5,1.9c1.3,0,2.6-0.4,3.7-1.2l5.2,5.2
	c0.2,0.2,0.5,0.3,0.8,0.3s0.5-0.1,0.8-0.3C42.9,121.4,42.9,120.7,42.5,120.3z M29.1,114.5c-0.8-0.8-1.2-1.9-1.2-3
	c0-1.1,0.4-2.2,1.2-3c0.8-0.8,1.9-1.2,3-1.2c1.1,0,2.2,0.4,3,1.2c0.8,0.8,1.2,1.9,1.2,3c0,1.1-0.4,2.2-1.2,3
	C33.5,116.1,30.7,116.1,29.1,114.5z"/>
<path fill="#454545" d="M32.7,151.6v-4.5l-8.5,7.8l8.5,7.8V158c0.8,0,9.2-0.8,11.7,5.8C44.4,163.8,44.4,153.5,32.7,151.6z"/>
<polygon fill="#454545" points="25.7,195.7 29.5,201 43.4,188.8 45.6,191.4 29,206 22.9,197.7 "/>
<g>
	<path fill="#454545" d="M269.6,148.8v-1v-0.4c0-0.2-0.2-0.3-0.3-0.3h-13.6c-0.2,0-0.3,0.2-0.3,0.3v0.4v1v1.8h14.3V148.8z"/>
	<path fill="#454545" d="M271.3,151.9h-17.8c-0.6,0-1,0.5-1,1v1v1.2v5.9h3.6v2.9h12.7V161h3.5v-5.9v-1.2v-1
		C272.3,152.3,271.8,151.9,271.3,151.9z M267.9,163h-11v-6.4h11V163z M270.8,154.4c-0.3,0.3-0.7,0.3-1,0c-0.3-0.3-0.3-0.7,0-1
		c0.3-0.3,0.7-0.3,1,0C271.1,153.7,271.1,154.1,270.8,154.4z"/>
</g>
<path fill="#454545" d="M272.7,190.4h-13.2l-0.4-1.1c-0.1-0.2-0.3-0.3-0.5-0.3h-4.8c-0.3,0-0.5,0.2-0.5,0.5v0.9H252
	c-0.3,0-0.5,0.2-0.5,0.5v14.4c0,0.3,0.2,0.5,0.5,0.5h20.7c0.3,0,0.5-0.2,0.5-0.5V191C273.3,190.7,273,190.4,272.7,190.4z"/>
<path fill="#454545" d="M265.9,63.3h-7l-4.9,4.9v7l4.9,4.9h7l4.9-4.9v-7L265.9,63.3z M263.5,66l-0.3,7.8h-1.7l-0.3-7.8H263.5z
	 M262.4,77.5c-0.6,0-1.1-0.5-1.1-1.1s0.5-1.1,1.1-1.1c0.6,0,1.1,0.5,1.1,1.1S263,77.5,262.4,77.5z"/>
<path fill="#454545" d="M269.2,111.9c-0.4-1-1-1.9-1.7-2.6c-0.4-0.4-1-0.4-1.4,0c-0.4,0.4-0.4,1,0,1.4c0.6,0.5,1,1.2,1.3,1.9
	c0.5,1.3,0.5,2.8-0.1,4.1c-0.6,1.3-1.6,2.3-3,2.8c-1.3,0.5-2.8,0.5-4.1-0.1c-1.3-0.6-2.3-1.6-2.8-3c-1.1-2.8,0.3-5.9,3.1-6.9l0.1,0
	l-0.7,1.6c-0.2,0.5,0,1,0.5,1.2c0.1,0.1,0.2,0.1,0.4,0.1c0.3,0,0.7-0.2,0.8-0.5l1.7-3.8c0.1-0.2,0.1-0.5,0-0.7
	c-0.1-0.2-0.3-0.4-0.5-0.5l-3.6-1.6c-0.5-0.2-1,0-1.2,0.5c-0.2,0.5,0,1,0.5,1.2l1.5,0.7l-0.1,0c-1.8,0.7-3.3,2.1-4.1,3.9
	c-0.8,1.8-0.8,3.8-0.1,5.6c0.7,1.8,2.1,3.3,3.9,4.1c1,0.4,2,0.6,3,0.6c0.9,0,1.8-0.2,2.6-0.5c1.8-0.7,3.3-2.1,4.1-3.9
	C269.9,115.8,269.9,113.8,269.2,111.9z"/>
<g>
	<path fill="#454545" d="M261.5,33.5c0.2,0.2,0.6,0.4,0.9,0.4s0.7-0.1,0.9-0.4l4.1-4.1c0.5-0.5,0.5-1.3,0-1.8
		c-0.5-0.5-1.3-0.5-1.8,0l-1.9,1.9v-6.8c0-0.7-0.6-1.3-1.3-1.3c-0.7,0-1.3,0.6-1.3,1.3v6.8l-1.9-1.9c-0.5-0.5-1.3-0.5-1.8,0
		c-0.5,0.5-0.5,1.3,0,1.8L261.5,33.5z"/>
	<path fill="#454545" d="M267.6,35.9h-10.4c-0.7,0-1.3,0.6-1.3,1.3c0,0.7,0.6,1.3,1.3,1.3h10.4c0.7,0,1.3-0.6,1.3-1.3
		C268.9,36.5,268.3,35.9,267.6,35.9z"/>
</g>
<path fill="#454545" d="M90.3,63.6l-3.8-0.2c-0.1,0-0.2,0-0.3,0.1L83,66.7c-0.1,0.1-0.1,0.2-0.1,0.3l0.3,3.8c0,0.1,0,0.2,0.1,0.3
	l9,9c0.1,0.1,0.2,0.1,0.3,0.1c0.1,0,0.2,0,0.3-0.1l6.8-6.8c0.2-0.2,0.2-0.4,0-0.6l-9-9C90.5,63.6,90.4,63.6,90.3,63.6z M87.6,68.1
	c-0.4,0.4-1.1,0.4-1.5,0c-0.4-0.4-0.4-1.1,0-1.5c0.4-0.4,1.1-0.4,1.5,0C88,67,88,67.7,87.6,68.1z"/>
<path fill="#454545" d="M91.3,105.1c-3.3,0-5.9,2.7-5.9,5.9c0,3.8,5,11.1,5.9,11.1c0.9,0,5.9-7.3,5.9-11.1
	C97.2,107.8,94.6,105.1,91.3,105.1z M91.3,113.4c-1.3,0-2.4-1.1-2.4-2.4c0-1.3,1.1-2.4,2.4-2.4c1.3,0,2.4,1.1,2.4,2.4
	C93.7,112.4,92.6,113.4,91.3,113.4z"/>
<g>
	<path fill="#454545" d="M92.8,151.6v-4.5l-8.5,7.7l8.5,7.7V158c0.8,0,9.2-0.8,11.7,5.8C104.5,163.8,104.5,153.5,92.8,151.6z"/>
	<polygon fill="#454545" points="86.6,149.9 86.6,147.1 78.1,154.8 86.6,162.5 86.6,159.7 81.2,154.8 	"/>
</g>
<polygon fill="#454545" points="99.5,191.7 97,189.2 91.3,194.9 85.5,189.2 83,191.7 88.8,197.4 83,203.2 85.5,205.7 91.3,199.9 
	97,205.7 99.5,203.2 93.8,197.4 "/>
<path fill="#454545" d="M100.2,21.5H82.4c-0.4,0-0.8,0.3-0.8,0.8v15.3c0,0.4,0.3,0.8,0.8,0.8h17.9c0.4,0,0.8-0.3,0.8-0.8V22.3
	C101,21.9,100.6,21.5,100.2,21.5z M94.3,33.5L91.8,36c-0.1,0.1-0.3,0.2-0.6,0.2c-0.2,0-0.4-0.1-0.6-0.2l-2.5-2.5
	c-0.3-0.3-0.3-0.8,0-1.1c0.3-0.3,0.8-0.3,1.1,0l1.2,1.2v-4.2c0-0.4,0.4-0.8,0.8-0.8c0.4,0,0.8,0.4,0.8,0.8v4.2l1.2-1.2
	c0.3-0.3,0.8-0.3,1.1,0C94.7,32.7,94.7,33.2,94.3,33.5z M99.5,26.5H83.1v-3.4h16.3V26.5z"/>
<path fill="#454545" d="M210.6,80.2c-1.3,0-2.8-0.6-3.7-1.5l-8.9-8.9c-1.5-1.5-1.5-3.8,0-5.3c1.5-1.5,3.8-1.5,5.3,0l5.8,5.8
	c1,1,1.4,3,0.4,4c-0.4,0.4-0.9,0.6-1.5,0.6c0,0,0,0,0,0c-0.9,0-1.9-0.4-2.5-1l-4.3-4.3c-0.2-0.2-0.2-0.6,0-0.8
	c0.2-0.2,0.6-0.2,0.8,0l4.3,4.3c0.4,0.4,1.1,0.7,1.6,0.7h0c0.2,0,0.5,0,0.7-0.2c0.5-0.5,0.2-1.8-0.4-2.3l-5.8-5.8c-1-1-2.6-1-3.6,0
	c-1,1-1,2.6,0,3.6l8.9,8.9c0.5,0.5,1.4,0.9,2.2,1.1c0.9,0.1,1.6,0,2-0.4c0.4-0.4,0.6-1.2,0.4-2c-0.1-0.9-0.6-1.7-1.1-2.2l-0.2-0.2
	c-0.2-0.2-0.2-0.6,0-0.8c0.2-0.2,0.6-0.2,0.8,0l0.2,0.2c0.7,0.7,1.2,1.8,1.4,2.9c0.2,1.3-0.1,2.4-0.8,3.1
	C212.3,79.9,211.5,80.2,210.6,80.2z"/>
<g>
	<path fill="#454545" d="M205.4,38.3c1.1,0,2-0.7,2.3-1.7l-4.7,0C203.3,37.6,204.3,38.3,205.4,38.3z"/>
	<path fill="#454545" d="M211.8,34.4c-0.7-0.1-1.7-0.5-1.7-2.1v-4.8c0-2.3-1.6-4.2-3.8-4.7v-0.7c0-0.5-0.4-0.7-1-0.7
		c-0.5,0-1,0.2-1,0.7v0.7c-2.2,0.4-3.8,2.4-3.8,4.7v4.8c0,1.6-1,2-1.7,2.1c-0.3,0-0.5,0.3-0.5,0.6c0,0.3,0.3,0.6,0.6,0.6h6.4h6.4
		c0.3,0,0.6-0.3,0.6-0.6C212.3,34.7,212.1,34.5,211.8,34.4z"/>
</g>
<path fill="#454545" d="M213.2,116l-1.7-1c0.1-0.4,0.1-0.9,0.1-1.3c0-0.5-0.1-0.9-0.1-1.3l1.7-1c0.2-0.1,0.3-0.4,0.2-0.6l-1.5-2.6
	c-0.1-0.2-0.4-0.2-0.6-0.1l-1.7,0.9c-0.7-0.6-1.4-1.1-2.3-1.3l-0.1-2c0-0.2-0.2-0.4-0.4-0.4h-2.9c-0.2,0-0.4,0.2-0.4,0.4l-0.1,2
	c-0.9,0.3-1.7,0.7-2.3,1.3l-1.7-0.9c-0.2-0.1-0.5-0.1-0.6,0.1l-1.5,2.6c-0.1,0.2,0,0.4,0.2,0.6l1.7,1c-0.1,0.4-0.1,0.9-0.1,1.3
	c0,0.5,0.1,0.9,0.1,1.3l-1.7,1c-0.2,0.1-0.3,0.4-0.2,0.6l1.5,2.6c0.1,0.2,0.4,0.2,0.6,0.1l1.7-0.9c0.7,0.6,1.4,1.1,2.3,1.3l0.1,2
	c0,0.2,0.2,0.4,0.4,0.4h2.9c0.2,0,0.4-0.2,0.4-0.4l0.1-2c0.9-0.3,1.7-0.7,2.3-1.3l1.7,0.9c0.2,0.1,0.5,0.1,0.6-0.1l1.5-2.6
	C213.5,116.4,213.4,116.1,213.2,116z M205.4,116.4c-1.5,0-2.8-1.2-2.8-2.8c0-1.5,1.2-2.8,2.8-2.8c1.5,0,2.8,1.2,2.8,2.8
	C208.1,115.1,206.9,116.4,205.4,116.4z"/>
<path fill="#454545" d="M200.2,163.5c0,0.1,0,0.2,0.1,0.3c0.1,0.1,0.2,0.1,0.3,0.1h9.6c0.2,0,0.4-0.2,0.4-0.4v-12.9h-10.4
	L200.2,163.5z"/>
<path fill="#454545" d="M210.7,147.7h-4v-0.4c0-0.1-0.1-0.2-0.2-0.2h-2.6c-0.1,0-0.2,0.1-0.2,0.2v0.4H200c-0.4,0-0.8,0.3-0.8,0.8
	v0.9h12.3v-0.9C211.5,148,211.2,147.7,210.7,147.7z"/>
<g>
	<path fill="#454545" d="M213.5,189h-16.4c-0.3,0-0.5,0.2-0.5,0.5v15.8c0,0.3,0.2,0.5,0.5,0.5h16.4c0.3,0,0.5-0.2,0.5-0.5v-15.8
		C214,189.2,213.8,189,213.5,189z M197.8,204.7v-11.2h15.1v11.2H197.8z"/>
	<polygon fill="#454545" points="201.4,197 204.2,197 204.2,198.5 202.3,198.5 202.3,199.7 204.2,199.7 204.2,201.2 201.4,201.2 
		201.4,202.3 205.4,202.3 205.4,195.9 201.4,195.9 	"/>
	<polygon fill="#454545" points="207,197 208.1,197 208.1,202.3 209.3,202.3 209.3,195.9 207,195.9 	"/>
</g>
<g>
	<path fill="#E6E7E8" d="M184.2,235.5v7c0,0.5,0,1.1,0,1.5h-0.9l0-1h0c-0.3,0.6-1,1.1-2,1.1c-1.4,0-2.5-1.2-2.5-3
		c0-1.9,1.2-3.1,2.6-3.1c0.9,0,1.5,0.4,1.8,0.9h0v-3.5H184.2z M183.2,240.5c0-0.1,0-0.3,0-0.4c-0.2-0.7-0.7-1.2-1.5-1.2
		c-1.1,0-1.7,1-1.7,2.2c0,1.2,0.6,2.1,1.7,2.1c0.7,0,1.4-0.5,1.5-1.3c0-0.1,0-0.3,0-0.5V240.5z"/>
	<path fill="#E6E7E8" d="M186,240c0-0.7,0-1.3,0-1.8h0.9l0,1.1h0c0.3-0.8,0.9-1.3,1.6-1.3c0.1,0,0.2,0,0.3,0v1c-0.1,0-0.2,0-0.4,0
		c-0.7,0-1.3,0.6-1.4,1.4c0,0.1,0,0.3,0,0.5v3.1h-1V240z"/>
	<path fill="#E6E7E8" d="M191.1,236.5c0,0.4-0.3,0.6-0.7,0.6c-0.4,0-0.6-0.3-0.6-0.6c0-0.4,0.3-0.7,0.7-0.7
		C190.9,235.9,191.1,236.2,191.1,236.5z M189.9,244v-5.8h1.1v5.8H189.9z"/>
	<path fill="#E6E7E8" d="M192.7,244c0-0.4,0-1,0-1.5v-7h1v3.6h0c0.4-0.6,1-1.1,2-1.1c1.4,0,2.5,1.2,2.4,3c0,2.1-1.3,3.1-2.6,3.1
		c-0.8,0-1.5-0.3-1.9-1.1h0l0,1H192.7z M193.8,241.6c0,0.1,0,0.3,0,0.4c0.2,0.7,0.8,1.2,1.6,1.2c1.1,0,1.8-0.9,1.8-2.2
		c0-1.2-0.6-2.2-1.7-2.2c-0.7,0-1.4,0.5-1.6,1.3c0,0.1-0.1,0.3-0.1,0.4V241.6z"/>
	<path fill="#E6E7E8" d="M199.5,244c0-0.4,0-1,0-1.5v-7h1v3.6h0c0.4-0.6,1-1.1,2-1.1c1.4,0,2.5,1.2,2.4,3c0,2.1-1.3,3.1-2.6,3.1
		c-0.8,0-1.5-0.3-1.9-1.1h0l0,1H199.5z M200.6,241.6c0,0.1,0,0.3,0,0.4c0.2,0.7,0.8,1.2,1.6,1.2c1.1,0,1.8-0.9,1.8-2.2
		c0-1.2-0.6-2.2-1.7-2.2c-0.7,0-1.4,0.5-1.6,1.3c0,0.1-0.1,0.3-0.1,0.4V241.6z"/>
	<path fill="#E6E7E8" d="M206.4,244c0-0.4,0-1,0-1.5v-7h1v3.6h0c0.4-0.6,1-1.1,2-1.1c1.4,0,2.5,1.2,2.4,3c0,2.1-1.3,3.1-2.6,3.1
		c-0.8,0-1.5-0.3-1.9-1.1h0l0,1H206.4z M207.4,241.6c0,0.1,0,0.3,0,0.4c0.2,0.7,0.8,1.2,1.6,1.2c1.1,0,1.8-0.9,1.8-2.2
		c0-1.2-0.6-2.2-1.7-2.2c-0.7,0-1.4,0.5-1.6,1.3c0,0.1-0.1,0.3-0.1,0.4V241.6z"/>
	<path fill="#E6E7E8" d="M213.2,235.5h1.1v8.5h-1.1V235.5z"/>
	<path fill="#E6E7E8" d="M216.7,241.3c0,1.4,0.9,2,2,2c0.8,0,1.2-0.1,1.6-0.3l0.2,0.8c-0.4,0.2-1,0.4-1.9,0.4
		c-1.8,0-2.9-1.2-2.9-2.9c0-1.8,1-3.1,2.7-3.1c1.9,0,2.4,1.7,2.4,2.7c0,0.2,0,0.4,0,0.5H216.7z M219.7,240.5c0-0.7-0.3-1.7-1.5-1.7
		c-1.1,0-1.5,1-1.6,1.7H219.7z"/>
	<path fill="#E6E7E8" d="M221.7,243.3c0-0.4,0.3-0.8,0.7-0.8c0.4,0,0.7,0.3,0.7,0.8c0,0.4-0.3,0.8-0.7,0.8
		C222,244.1,221.7,243.8,221.7,243.3z"/>
	<path fill="#E6E7E8" d="M228.6,243.8c-0.3,0.1-0.9,0.3-1.7,0.3c-1.8,0-2.9-1.2-2.9-3c0-1.8,1.2-3.1,3.1-3.1c0.6,0,1.2,0.2,1.5,0.3
		l-0.2,0.8c-0.3-0.1-0.6-0.3-1.2-0.3c-1.3,0-2.1,1-2.1,2.2c0,1.3,0.9,2.2,2,2.2c0.6,0,1-0.2,1.3-0.3L228.6,243.8z"/>
	<path fill="#E6E7E8" d="M235,241c0,2.1-1.5,3.1-2.9,3.1c-1.6,0-2.8-1.2-2.8-3c0-1.9,1.3-3.1,2.9-3.1C233.8,238,235,239.2,235,241z
		 M230.4,241.1c0,1.3,0.7,2.2,1.8,2.2c1,0,1.8-0.9,1.8-2.3c0-1-0.5-2.2-1.7-2.2C230.9,238.8,230.4,240,230.4,241.1z"/>
	<path fill="#E6E7E8" d="M236.3,239.7c0-0.6,0-1.1,0-1.6h0.9l0,0.9h0c0.3-0.6,0.9-1.1,1.8-1.1c0.8,0,1.4,0.5,1.6,1.2h0
		c0.2-0.3,0.4-0.6,0.6-0.8c0.3-0.3,0.7-0.4,1.3-0.4c0.8,0,1.9,0.5,1.9,2.5v3.4h-1v-3.3c0-1.1-0.4-1.8-1.3-1.8c-0.6,0-1.1,0.4-1.2,1
		c0,0.1-0.1,0.3-0.1,0.5v3.6h-1v-3.5c0-0.9-0.4-1.6-1.2-1.6c-0.7,0-1.1,0.5-1.3,1.1c-0.1,0.2-0.1,0.3-0.1,0.5v3.5h-1V239.7z"/>
	<path fill="#E6E7E8" d="M245.4,244.5l3.3-8.7h0.8l-3.4,8.7H245.4z"/>
	<path fill="#E6E7E8" d="M253.6,244l-0.1-0.7h0c-0.3,0.5-0.9,0.9-1.8,0.9c-1.2,0-1.8-0.8-1.8-1.7c0-1.4,1.2-2.2,3.5-2.2v-0.1
		c0-0.5-0.1-1.3-1.3-1.3c-0.5,0-1.1,0.2-1.5,0.4l-0.2-0.7c0.5-0.3,1.2-0.5,1.9-0.5c1.8,0,2.2,1.2,2.2,2.4v2.2c0,0.5,0,1,0.1,1.4
		H253.6z M253.5,241c-1.2,0-2.5,0.2-2.5,1.3c0,0.7,0.5,1,1,1c0.8,0,1.2-0.5,1.4-1c0-0.1,0.1-0.2,0.1-0.3V241z"/>
	<path fill="#E6E7E8" d="M256.2,235.5h1.1v8.5h-1.1V235.5z"/>
	<path fill="#E6E7E8" d="M259.6,241.3c0,1.4,0.9,2,2,2c0.8,0,1.2-0.1,1.6-0.3l0.2,0.8c-0.4,0.2-1,0.4-1.9,0.4
		c-1.8,0-2.9-1.2-2.9-2.9c0-1.8,1-3.1,2.7-3.1c1.9,0,2.4,1.7,2.4,2.7c0,0.2,0,0.4,0,0.5H259.6z M262.7,240.5c0-0.7-0.3-1.7-1.5-1.7
		c-1.1,0-1.5,1-1.6,1.7H262.7z"/>
	<path fill="#E6E7E8" d="M265.5,238.2l0.8,1.2c0.2,0.3,0.4,0.6,0.6,0.9h0c0.2-0.3,0.4-0.6,0.6-1l0.8-1.2h1.1l-2,2.8l2,3h-1.2
		l-0.9-1.3c-0.2-0.3-0.4-0.7-0.6-1h0c-0.2,0.3-0.4,0.7-0.6,1l-0.8,1.3h-1.2l2.1-3l-2-2.8H265.5z"/>
	<path fill="#E6E7E8" d="M270.6,240.1c0-0.7,0-1.3,0-1.9h0.9l0,1h0c0.4-0.7,1.1-1.1,2.1-1.1c1.4,0,2.5,1.2,2.5,2.9
		c0,2.1-1.3,3.1-2.6,3.1c-0.8,0-1.4-0.3-1.8-0.9h0v3.2h-1V240.1z M271.6,241.6c0,0.2,0,0.3,0,0.4c0.2,0.7,0.8,1.2,1.6,1.2
		c1.1,0,1.8-0.9,1.8-2.2c0-1.2-0.6-2.2-1.7-2.2c-0.7,0-1.4,0.5-1.6,1.3c0,0.1-0.1,0.3-0.1,0.4V241.6z"/>
	<path fill="#E6E7E8" d="M282.7,241c0,2.1-1.5,3.1-2.9,3.1c-1.6,0-2.8-1.2-2.8-3c0-1.9,1.3-3.1,2.9-3.1
		C281.5,238,282.7,239.2,282.7,241z M278.1,241.1c0,1.3,0.7,2.2,1.8,2.2c1,0,1.8-0.9,1.8-2.3c0-1-0.5-2.2-1.7-2.2
		C278.6,238.8,278.1,240,278.1,241.1z"/>
	<path fill="#E6E7E8" d="M288.9,242.4c0,0.6,0,1.1,0,1.6H288l-0.1-0.9h0c-0.3,0.5-0.9,1.1-1.9,1.1c-0.9,0-2-0.5-2-2.5v-3.4h1.1v3.2
		c0,1.1,0.3,1.8,1.3,1.8c0.7,0,1.2-0.5,1.4-1c0.1-0.2,0.1-0.3,0.1-0.5v-3.6h1.1V242.4z"/>
	<path fill="#E6E7E8" d="M290.6,240c0-0.7,0-1.3,0-1.8h0.9l0,1.1h0c0.3-0.8,0.9-1.3,1.6-1.3c0.1,0,0.2,0,0.3,0v1c-0.1,0-0.2,0-0.4,0
		c-0.7,0-1.3,0.6-1.4,1.4c0,0.1,0,0.3,0,0.5v3.1h-1V240z"/>
</g>
<g>
	<path fill="#E6E7E8" d="M6.7,244.7c-0.7,0.3-1.3,0.5-2.1,0.5c-2,0-3.6-1.4-3.6-3.7c0-2.5,1.7-4.6,4.4-4.6c2.1,0,3.5,1.5,3.5,3.5
		c0,1.8-1,2.9-2.1,2.9c-0.5,0-0.9-0.3-0.9-1.1h0c-0.4,0.7-1,1.1-1.7,1.1c-0.7,0-1.3-0.6-1.3-1.5c0-1.5,1.2-2.8,2.8-2.8
		c0.5,0,1,0.1,1.3,0.3l-0.4,2.2c-0.2,0.9,0,1.3,0.4,1.3c0.6,0,1.3-0.8,1.3-2.2c0-1.7-1-3-2.9-3c-2,0-3.6,1.5-3.6,4
		c0,2,1.3,3.2,3.1,3.2c0.7,0,1.3-0.1,1.8-0.4L6.7,244.7z M6,239.6c-0.1,0-0.3-0.1-0.6-0.1c-1.1,0-1.9,1-1.9,2.2
		c0,0.5,0.3,0.9,0.8,0.9c0.7,0,1.3-0.9,1.5-1.6L6,239.6z"/>
	<path fill="#E6E7E8" d="M13.3,244l-0.1-0.7h0c-0.3,0.5-0.9,0.9-1.8,0.9c-1.2,0-1.8-0.8-1.8-1.7c0-1.4,1.2-2.2,3.5-2.2v-0.1
		c0-0.5-0.1-1.3-1.3-1.3c-0.5,0-1.1,0.2-1.5,0.4l-0.2-0.7c0.5-0.3,1.2-0.5,1.9-0.5c1.8,0,2.2,1.2,2.2,2.4v2.2c0,0.5,0,1,0.1,1.4
		H13.3z M13.2,241c-1.2,0-2.5,0.2-2.5,1.3c0,0.7,0.5,1,1,1c0.8,0,1.2-0.5,1.4-1c0-0.1,0.1-0.2,0.1-0.3V241z"/>
	<path fill="#E6E7E8" d="M15.9,235.5H17v8.5h-1.1V235.5z"/>
	<path fill="#E6E7E8" d="M18.7,240.1c0-0.7,0-1.3,0-1.9h0.9l0,1h0c0.4-0.7,1.1-1.1,2.1-1.1c1.4,0,2.5,1.2,2.5,2.9
		c0,2.1-1.3,3.1-2.6,3.1c-0.8,0-1.4-0.3-1.8-0.9h0v3.2h-1V240.1z M19.8,241.6c0,0.2,0,0.3,0,0.4c0.2,0.7,0.8,1.2,1.6,1.2
		c1.1,0,1.8-0.9,1.8-2.2c0-1.2-0.6-2.2-1.7-2.2c-0.7,0-1.4,0.5-1.6,1.3c0,0.1-0.1,0.3-0.1,0.4V241.6z"/>
	<path fill="#E6E7E8" d="M30.8,241c0,2.1-1.5,3.1-2.9,3.1c-1.6,0-2.8-1.2-2.8-3c0-1.9,1.3-3.1,2.9-3.1C29.7,238,30.8,239.2,30.8,241
		z M26.2,241.1c0,1.3,0.7,2.2,1.8,2.2c1,0,1.8-0.9,1.8-2.3c0-1-0.5-2.2-1.7-2.2C26.7,238.8,26.2,240,26.2,241.1z"/>
	<path fill="#E6E7E8" d="M37,242.4c0,0.6,0,1.1,0,1.6h-0.9l-0.1-0.9h0c-0.3,0.5-0.9,1.1-1.9,1.1c-0.9,0-2-0.5-2-2.5v-3.4h1.1v3.2
		c0,1.1,0.3,1.8,1.3,1.8c0.7,0,1.2-0.5,1.4-1c0.1-0.2,0.1-0.3,0.1-0.5v-3.6H37V242.4z"/>
	<path fill="#E6E7E8" d="M38.8,240c0-0.7,0-1.3,0-1.8h0.9l0,1.1h0c0.3-0.8,0.9-1.3,1.6-1.3c0.1,0,0.2,0,0.3,0v1c-0.1,0-0.2,0-0.4,0
		c-0.7,0-1.3,0.6-1.4,1.4c0,0.1,0,0.3,0,0.5v3.1h-1V240z"/>
</g>
<path fill="#454545" d="M157.3,27.9c-0.1-0.3-0.3-0.5-0.6-0.5h-5.9l-1.8-5.6c-0.1-0.3-0.3-0.5-0.6-0.5c-0.3,0-0.5,0.2-0.6,0.5
	l-1.8,5.6H140c-0.3,0-0.5,0.2-0.6,0.5c-0.1,0.3,0,0.6,0.2,0.8l4.7,3.4l-1.8,5.6c-0.1,0.3,0,0.6,0.2,0.8c0.2,0.2,0.6,0.2,0.8,0
	l4.7-3.4l4.7,3.4c0.1,0.1,0.3,0.1,0.4,0.1c0.1,0,0.3,0,0.4-0.1c0.2-0.2,0.3-0.5,0.2-0.8l-1.8-5.6l4.7-3.4
	C157.3,28.4,157.4,28.1,157.3,27.9z"/>
<g>
	
		<rect x="146.2" y="65" transform="matrix(-0.7328 -0.6805 0.6805 -0.7328 207.2061 225.6386)" fill="#454545" width="3.5" height="14.4"/>
	<polygon fill="#454545" points="140.3,80.3 143.4,79.5 140.8,77.2 	"/>
	<path fill="#454545" d="M156.1,65l-1.7-1.6c-0.2-0.2-0.6-0.2-0.8,0l-0.3,0.3l0,0l-0.9,0.9l2.6,2.4l0.9-0.9l0,0l0.3-0.3
		C156.4,65.6,156.4,65.2,156.1,65z"/>
</g>
<polygon fill="#454545" points="156.6,105.3 140,113.6 147,114.9 148.4,121.9 "/>
<polygon fill="#454545" points="158.4,155.5 149.9,147.7 149.9,152.4 138.2,152.4 138.2,158.5 149.9,158.5 149.9,163.2 "/>
<path fill="#454545" d="M154.8,204.2c0,0-0.2-2.4-0.5-3.9c-0.1-0.6-1.3-1.1-2.8-1.7c-0.5-0.2-1-0.4-1.2-0.6
	c-0.6-0.4-0.6-0.9-0.6-1.3c0,0,0-0.1,0-0.1c0-0.1,0-0.2,0.2-0.3c0.2-0.2,0.3-0.4,0.5-1c0-0.1,0.1-0.2,0.1-0.3c0,0,0-0.1,0-0.3
	c0-0.1,0-0.2,0.1-0.3c0.2,0.3,0.7-0.8,0.5-1.3c-0.1-0.2-0.2-0.3-0.3-0.3c0-0.1,0.9-2.1-0.3-2.8c0.1-0.4,0.1-0.7,0.1-0.8
	c0,0,0-0.1-0.1-0.1c0,0-0.1,0-0.1,0c-0.6,0.4-1.2,0.2-1.9,0.1c-0.5-0.1-1-0.2-1.5-0.1c-0.6,0.1-0.8,0.6-1,0.9
	c-1.1,0.7-0.3,2.7-0.3,2.8c-0.1,0-0.3,0-0.3,0.3c-0.1,0.5,0.3,1.6,0.5,1.3c0.1,0.3,0.2,0.9,0.2,1.1c0.1,0.5,0.3,0.7,0.4,0.8
	c0.1,0.1,0.2,0.2,0.2,0.3c0,0,0,0.1,0,0.1c0,0.4,0,1-0.6,1.3c-0.2,0.1-0.7,0.3-1.2,0.6c-1.5,0.6-2.7,1.2-2.8,1.7
	c-0.3,1.5-0.5,3.9-0.5,3.9l0,0l0,0C142.6,206.3,154,206.3,154.8,204.2L154.8,204.2L154.8,204.2z"/>
</svg>
